<?xml version="1.0" encoding="UTF-8"?>
<svg xmlns="http://www.w3.org/2000/svg" width="1024" height="1024" viewBox="0 0 1024 1024" role="img" aria-labelledby="title desc" color-interpolation="sRGB">
  <title id="title">DeepGym Safari pinned tab</title>
  <desc id="desc">Selected DeepGym Night Reverse symbol, deterministically vectorized from the approved artwork.</desc>


  <g transform="translate(-235.0420 -156.0622) scale(1.18766620)">
  <path d="M 597 268.535 C 568.412 272.142, 538.842 279.900, 512.500 290.702 C 499.050 296.218, 477.701 306.956, 464.972 314.607 C 453.247 321.655, 438.756 331.863, 425.559 342.370 C 410.937 354.012, 379.311 386.120, 365.839 403 C 346.844 426.799, 331.387 451.196, 316.419 481 C 307.885 497.994, 300.307 516.015, 294.345 533.500 C 289.139 548.769, 283.285 571.950, 280.578 588.023 C 276.880 609.978, 275.644 628.385, 276.293 651.841 C 277.086 680.532, 280.540 702.166, 288.539 728.560 C 292.920 743.017, 298.959 757.964, 306.472 772.945 C 316.325 792.590, 329.016 812.006, 344.326 830.855 C 356.042 845.280, 360.860 849.822, 368.355 853.512 C 373.575 856.082, 377.791 857.314, 384 858.085 C 389.895 858.817, 416.406 858.854, 470.500 858.206 C 546.096 857.301, 548.726 857.205, 555.836 855.109 C 559.871 853.919, 566.484 851.374, 570.532 849.453 C 587.484 841.408, 590.142 839.025, 655 773.724 L 716.500 711.804 739.027 734.652 C 751.416 747.218, 769.205 765.375, 778.557 775 C 787.909 784.625, 809.543 806.788, 826.632 824.250 L 857.703 856 896.101 855.985 C 938.654 855.969, 942.379 855.562, 953.407 849.725 C 956.758 847.951, 962.425 843.575, 966 840 C 969.575 836.425, 973.923 830.800, 975.661 827.500 C 977.400 824.200, 979.517 819.025, 980.366 816 C 981.215 812.975, 982.194 807.350, 982.540 803.500 C 983.319 794.849, 981.260 784.290, 977.031 775.253 C 973.904 768.570, 974.857 769.623, 932.001 725.500 C 910.888 703.763, 816.639 607.611, 790.046 580.679 C 778.196 568.677, 765.800 556.800, 762.500 554.285 C 759.200 551.770, 753.334 548.198, 749.465 546.347 C 745.595 544.496, 739.070 542.269, 734.965 541.399 C 729.737 540.290, 724.354 539.955, 717 540.281 C 709.399 540.618, 704.291 541.464, 698.500 543.347 C 682.046 548.698, 682.970 547.890, 613 618.057 C 577.525 653.631, 545.125 685.432, 541 688.725 C 536.875 692.018, 530.954 696.339, 527.842 698.328 C 520.711 702.885, 512.437 706.560, 504.599 708.650 C 501.132 709.575, 494.617 710.281, 489.500 710.286 C 482.372 710.293, 478.882 709.743, 472.722 707.645 C 468.443 706.187, 462.051 703.168, 458.515 700.935 C 454.980 698.703, 449.813 694.388, 447.034 691.347 C 444.255 688.307, 440.197 682.815, 438.016 679.143 C 435.835 675.472, 432.876 669.577, 431.440 666.045 C 430.005 662.512, 427.978 655.770, 426.937 651.061 C 425.548 644.782, 425.038 638.469, 425.022 627.381 C 425.009 618.213, 425.601 608.815, 426.527 603.505 C 427.367 598.689, 429.853 589.219, 432.052 582.461 C 434.250 575.702, 438.681 564.846, 441.897 558.336 C 448.306 545.364, 458.181 529.913, 467.995 517.500 C 476.613 506.600, 493.607 489.397, 504.500 480.546 C 509.450 476.524, 517.775 470.446, 523 467.041 C 528.225 463.635, 538.350 457.996, 545.500 454.510 C 552.650 451.023, 563.450 446.602, 569.500 444.683 C 575.550 442.765, 584.775 440.450, 590 439.539 C 595.225 438.629, 606.475 437.625, 615 437.309 C 626.938 436.867, 633.028 437.126, 641.500 438.438 C 647.550 439.374, 657.900 441.930, 664.500 444.118 C 676.802 448.195, 692.601 455.938, 702.929 462.952 C 706.131 465.127, 712.970 470.459, 718.126 474.802 C 723.282 479.144, 743.968 498.933, 764.096 518.776 C 799.680 553.856, 800.853 554.901, 806.513 556.547 C 813.422 558.555, 820.244 558.029, 826.492 555.004 C 829.400 553.596, 838.991 544.451, 856.681 526.220 C 906.538 474.838, 907.517 473.756, 911.544 465.608 C 914.730 459.162, 915.314 456.890, 915.750 449.256 C 916.116 442.836, 915.817 438.887, 914.666 434.945 C 913.791 431.950, 911.596 427.178, 909.788 424.340 C 906.181 418.679, 847.812 358.812, 834.695 347.320 C 822.508 336.642, 808.150 325.872, 794.980 317.528 C 773.477 303.906, 755.167 294.676, 732.500 286.034 C 711.968 278.206, 694.086 273.426, 672.015 269.867 C 662.551 268.340, 653.284 267.755, 634 267.466 C 615.630 267.190, 605.284 267.489, 597 268.535" fill="#000000" fill-rule="evenodd"/>

  </g>
</svg>
