<?xml version="1.0" encoding="UTF-8"?>
<svg xmlns="http://www.w3.org/2000/svg" width="867" height="752" viewBox="196 187 867 752" role="img" aria-labelledby="title desc" color-interpolation="sRGB">
  <title id="title">DeepGym lime compact knockout</title>
  <desc id="desc">Tight artboard with production clear space and no raster content.</desc>

  <path d="M 597 268.535 C 568.412 272.142, 538.842 279.900, 512.500 290.702 C 499.050 296.218, 477.701 306.956, 464.972 314.607 C 453.247 321.655, 438.756 331.863, 425.559 342.370 C 410.937 354.012, 379.311 386.120, 365.839 403 C 335.517 440.992, 310.019 487.536, 294.345 533.500 C 289.139 548.769, 283.285 571.950, 280.578 588.023 C 276.880 609.978, 275.644 628.385, 276.293 651.841 C 277.086 680.532, 280.540 702.166, 288.539 728.560 C 297.345 757.619, 313.043 788.847, 331.655 814.330 C 339.944 825.680, 348.607 836.381, 355.756 844.103 C 363.110 852.046, 372.400 856.645, 384 858.085 C 389.895 858.817, 416.406 858.854, 470.500 858.206 C 546.096 857.301, 548.726 857.205, 555.836 855.109 C 559.871 853.919, 566.484 851.374, 570.532 849.453 C 587.484 841.408, 590.142 839.025, 655 773.724 L 716.500 711.804 739.027 734.652 C 751.416 747.218, 769.205 765.375, 778.557 775 C 787.909 784.625, 809.543 806.788, 826.632 824.250 L 857.703 856 896.101 855.985 C 938.654 855.969, 942.379 855.562, 953.407 849.725 C 956.758 847.951, 962.425 843.575, 966 840 C 976.038 829.962, 981.179 818.616, 982.540 803.500 C 983.319 794.849, 981.260 784.290, 977.031 775.253 C 973.904 768.570, 974.857 769.623, 932.001 725.500 C 910.888 703.763, 816.639 607.611, 790.046 580.679 C 778.196 568.677, 765.800 556.800, 762.500 554.285 C 754.536 548.215, 744.120 543.341, 734.965 541.399 C 724.241 539.124, 708.980 539.940, 698.500 543.347 C 682.046 548.698, 682.970 547.890, 613 618.057 C 577.525 653.631, 545.125 685.432, 541 688.725 C 527.246 699.704, 516.893 705.371, 504.599 708.650 C 501.132 709.575, 494.617 710.281, 489.500 710.286 C 482.372 710.293, 478.882 709.743, 472.722 707.645 C 457.756 702.547, 446.359 693.188, 438.016 679.143 C 432.692 670.182, 429.219 661.377, 426.937 651.061 C 425.548 644.782, 425.038 638.469, 425.022 627.381 C 425.009 618.213, 425.601 608.815, 426.527 603.505 C 428.731 590.866, 435.160 571.974, 441.897 558.336 C 448.306 545.364, 458.181 529.913, 467.995 517.500 C 471.474 513.100, 479.086 504.631, 484.910 498.679 C 504.047 479.126, 522.288 465.828, 545.500 454.510 C 560.314 447.286, 576.181 441.949, 590 439.539 C 595.225 438.629, 606.475 437.625, 615 437.309 C 626.938 436.867, 633.028 437.126, 641.500 438.438 C 647.550 439.374, 657.900 441.930, 664.500 444.118 C 676.802 448.195, 692.601 455.938, 702.929 462.952 C 714.267 470.651, 727.921 483.113, 764.096 518.776 C 799.680 553.856, 800.853 554.901, 806.513 556.547 C 813.422 558.555, 820.244 558.029, 826.492 555.004 C 829.400 553.596, 838.991 544.451, 856.681 526.220 C 906.538 474.838, 907.517 473.756, 911.544 465.608 C 914.730 459.162, 915.314 456.890, 915.750 449.256 C 916.347 438.774, 914.761 432.144, 909.788 424.340 C 906.181 418.679, 847.812 358.812, 834.695 347.320 C 810.767 326.355, 780.269 306.684, 752.500 294.305 C 724.181 281.680, 700.300 274.429, 672.015 269.867 C 662.551 268.340, 653.284 267.755, 634 267.466 C 615.630 267.190, 605.284 267.489, 597 268.535 M 669.223 288.557 C 668 289.413, 667 291.143, 667 292.402 C 667 294.924, 669.823 298, 672.138 298 C 674.833 298, 677.250 295.400, 677.250 292.500 C 677.250 289.778, 674.867 287, 672.531 287 C 671.934 287, 670.445 287.701, 669.223 288.557 M 705 299 C 703.900 300.100, 703 301.800, 703 302.777 C 703 303.755, 703.701 305.555, 704.557 306.777 C 705.649 308.338, 707.133 309, 709.534 309 C 712.038 309, 713.374 308.359, 714.523 306.606 C 718.693 300.240, 710.391 293.609, 705 299 M 738.174 312.314 C 736.978 313.587, 736 315.820, 736 317.275 C 736 320.416, 739.493 324, 742.554 324 C 743.751 324, 745.916 323.067, 747.365 321.927 C 750.589 319.392, 750.878 314.878, 748 312 C 745.302 309.302, 740.871 309.444, 738.174 312.314 M 678.536 317.960 C 675.041 321.822, 679.061 327.581, 684.297 326.212 C 685.327 325.943, 686.653 324.660, 687.245 323.361 C 688.023 321.654, 688.006 320.308, 687.182 318.500 C 686.353 316.680, 685.264 316, 683.176 316 C 681.600 316, 679.512 316.882, 678.536 317.960 M 769.400 323.428 C 767.694 324.170, 766.007 325.539, 765.650 326.471 C 764.431 329.645, 764.997 333.687, 766.899 335.409 C 769.143 337.440, 773.700 337.766, 776.781 336.117 C 779.303 334.767, 780.497 331.118, 779.594 327.518 C 779.251 326.153, 777.650 324.353, 776.035 323.518 C 774.420 322.683, 772.964 322.018, 772.800 322.039 C 772.635 322.061, 771.105 322.686, 769.400 323.428 M 713.278 328.250 C 711.417 330.655, 711.063 333.044, 712.198 335.536 C 712.828 336.917, 714.394 338.312, 715.679 338.634 C 718.976 339.462, 723 336.591, 723 333.411 C 723 329.056, 721.264 327, 717.587 327 C 715.749 327, 713.810 327.563, 713.278 328.250 M 792.514 341.395 C 791.131 342.778, 790 344.994, 790 346.320 C 790 347.646, 790.933 349.916, 792.073 351.365 C 793.591 353.296, 795.061 354, 797.573 354 C 801.463 354, 804.602 351.436, 805.605 347.438 C 806.586 343.527, 803.267 339.582, 798.665 339.190 C 795.858 338.952, 794.455 339.454, 792.514 341.395 M 744.635 342.073 C 742.860 343.468, 742 345.101, 742 347.073 C 742 350.659, 745.135 354, 748.500 354 C 751.894 354, 755 350.656, 755 347 C 755 343.624, 751.963 340, 749.135 340 C 748.109 340, 746.084 340.933, 744.635 342.073 M 691.762 346.073 C 690.807 346.630, 689.537 347.997, 688.941 349.110 C 688.109 350.665, 688.227 351.698, 689.452 353.567 C 691.356 356.473, 695.009 356.753, 697.345 354.171 C 699.650 351.625, 699.409 348.400, 696.777 346.557 C 695.555 345.701, 694.318 345.014, 694.027 345.030 C 693.737 345.047, 692.718 345.516, 691.762 346.073 M 770.923 356.923 C 769.315 358.531, 768 360.801, 768 361.969 C 768 364.830, 772.341 369, 775.320 369 C 776.646 369, 778.916 368.067, 780.365 366.927 C 783.810 364.218, 783.886 359.795, 780.545 356.455 C 779.195 355.105, 777.136 354, 775.969 354 C 774.801 354, 772.531 355.315, 770.923 356.923 M 817.357 356.001 C 812.772 357.831, 810.525 364.496, 813.282 368.087 C 815.265 370.669, 818.781 372.093, 821.495 371.412 C 824.642 370.622, 828 366.497, 828 363.421 C 828 360.719, 824.371 356.383, 821.500 355.654 C 820.400 355.374, 818.536 355.530, 817.357 356.001 M 722.223 358.557 C 717.966 361.538, 720.432 369, 725.674 369 C 726.783 369, 728.435 368.177, 729.345 367.171 C 731.707 364.561, 731.434 360.418, 728.777 358.557 C 727.555 357.701, 726.080 357, 725.500 357 C 724.920 357, 723.445 357.701, 722.223 358.557 M 748.557 373.223 C 746.467 376.206, 746.590 380.319, 748.829 382.345 C 751.256 384.542, 756.283 384.450, 758.345 382.171 C 760.542 379.744, 760.450 374.717, 758.171 372.655 C 757.165 371.745, 754.941 371, 753.228 371 C 751.143 371, 749.599 371.735, 748.557 373.223 M 793.635 373.073 C 791.704 374.591, 791 376.061, 791 378.573 C 791 383.017, 793.942 386, 798.326 386 C 805.102 386, 808.552 377.746, 803.686 373.174 C 802.413 371.978, 800.223 371, 798.820 371 C 797.418 371, 795.084 371.933, 793.635 373.073 M 834.455 375.455 C 832.907 377.002, 832 379.052, 832 381 C 832 385.111, 835.889 389, 840 389 C 844.016 389, 848 385.106, 848 381.180 C 848 379.579, 847.067 377.084, 845.927 375.635 C 843.144 372.096, 837.896 372.014, 834.455 375.455 M 698.557 377.223 C 697.701 378.445, 697 379.950, 697 380.568 C 697 382.133, 700.346 385, 702.174 385 C 704.064 385, 707 381.853, 707 379.826 C 707 377.896, 703.837 375, 701.728 375 C 700.840 375, 699.413 376, 698.557 377.223 M 772.455 389.455 C 771.105 390.805, 770.006 392.492, 770.014 393.205 C 770.049 396.583, 771.502 399.208, 774.071 400.537 C 776.073 401.572, 777.598 401.723, 779.343 401.060 C 782.202 399.973, 785 396.348, 785 393.732 C 785 391.051, 780.486 387, 777.500 387 C 776.075 387, 773.805 388.105, 772.455 389.455 M 727 390 C 725.900 391.100, 725 392.575, 725 393.277 C 725 395.573, 728.068 399, 730.122 399 C 733.704 399, 736 397.094, 736 394.120 C 736 391.064, 733.332 388, 730.671 388 C 729.752 388, 728.100 388.900, 727 390 M 813.646 390.452 C 811.883 392.086, 811 393.937, 811 395.998 C 811 400.111, 814.888 404, 819 404 C 823.111 404, 827 400.111, 827 396 C 827 391.990, 823.106 388, 819.191 388 C 817.500 388, 815.190 389.021, 813.646 390.452 M 852.589 394.077 C 849.183 398.124, 849.201 402.226, 852.635 404.927 C 856.161 407.701, 861.091 407.622, 863.677 404.750 C 864.791 403.512, 865.975 401.725, 866.309 400.778 C 867.152 398.385, 865.163 393.157, 862.961 391.979 C 861.955 391.441, 859.792 391, 858.155 391 C 856.058 391, 854.412 391.910, 852.589 394.077 M 751.455 405.455 C 750.105 406.805, 749 408.976, 749 410.280 C 749 413.148, 752.842 417, 755.704 417 C 756.845 417, 758.803 416.170, 760.056 415.156 C 761.596 413.909, 762.333 412.240, 762.333 410 C 762.333 407.760, 761.596 406.091, 760.056 404.844 C 758.803 403.830, 756.908 403, 755.844 403 C 754.780 403, 752.805 404.105, 751.455 405.455 M 793.189 407.039 C 790.496 409.548, 790.277 414.924, 792.750 417.847 C 793.712 418.984, 795.666 420.190, 797.092 420.526 C 799.020 420.981, 800.492 420.457, 802.842 418.480 C 805.183 416.510, 806 414.989, 806 412.600 C 806 410.739, 805.138 408.452, 803.961 407.189 C 801.330 404.365, 796.137 404.293, 793.189 407.039 M 835 407.294 C 833.625 407.989, 831.907 409.796, 831.182 411.308 C 830.150 413.459, 830.113 414.814, 831.012 417.536 C 831.643 419.450, 832.995 421.462, 834.014 422.008 C 836.956 423.582, 840.513 423.171, 843.365 420.927 C 845.274 419.426, 846 417.932, 846 415.509 C 846 413.669, 845.720 411.435, 845.379 410.545 C 844.794 409.020, 840.047 405.983, 838.300 406.015 C 837.860 406.023, 836.375 406.599, 835 407.294 M 873 410.294 C 871.625 410.989, 869.897 412.816, 869.160 414.353 C 865.206 422.601, 876.046 430.045, 882.545 423.545 C 885.986 420.105, 885.807 415.653, 882.077 411.923 C 880.469 410.315, 878.332 409.007, 877.327 409.015 C 876.322 409.023, 874.375 409.599, 873 410.294 M 730 422 C 728.900 423.100, 728 424.675, 728 425.500 C 728 427.468, 731.574 431, 733.566 431 C 734.427 431, 736.002 430.534, 737.066 429.965 C 738.401 429.250, 739 427.867, 739 425.500 C 739 423.133, 738.401 421.750, 737.066 421.035 C 734.195 419.499, 732.233 419.767, 730 422 M 772.455 423.455 C 771.105 424.805, 770 427.075, 770 428.500 C 770 431.318, 774 436, 776.407 436 C 779.356 436, 782.884 433.695, 783.978 431.054 C 786.009 426.150, 782.446 421, 777.020 421 C 775.859 421, 773.805 422.105, 772.455 423.455 M 813.040 425.806 C 811.199 427.647, 810 429.880, 810 431.469 C 810 435.235, 814.139 439, 818.280 439 C 824.767 439, 828.414 431.129, 824.250 426.114 C 823.288 424.955, 821.056 423.727, 819.290 423.386 C 816.604 422.867, 815.584 423.262, 813.040 425.806 M 852.500 426.208 C 849.425 427.972, 848.067 430.207, 848.032 433.563 C 847.991 437.455, 852.472 442, 856.350 442 C 857.927 442, 860.133 440.957, 861.545 439.545 C 863.328 437.763, 864 436.003, 864 433.118 C 864 430.017, 863.422 428.690, 861.365 427.073 C 858.434 424.767, 855.509 424.482, 852.500 426.208 M 889.321 428.189 C 888.123 428.768, 886.588 430.580, 885.911 432.215 C 884.215 436.308, 885.714 440.096, 889.849 442.167 C 892.477 443.483, 893.812 443.613, 896.196 442.782 C 899.958 441.470, 902.442 436.292, 901.057 432.649 C 899.926 429.676, 896.283 426.976, 893.527 427.068 C 892.412 427.105, 890.520 427.609, 889.321 428.189 M 752.174 439.314 C 750.978 440.587, 750 442.812, 750 444.258 C 750 447.248, 753.222 450, 756.723 450 C 759.722 450, 763 446.626, 763 443.539 C 763 440.574, 759.439 437, 756.486 437 C 755.310 437, 753.370 438.042, 752.174 439.314 M 795.091 440.099 C 791.749 441.423, 790.069 443.939, 790.032 447.677 C 790.009 449.943, 790.757 451.450, 792.635 452.927 C 794.084 454.067, 796.354 455, 797.680 455 C 801.043 455, 805 450.760, 805 447.156 C 805 443.847, 802.492 440.429, 799.500 439.660 C 798.400 439.377, 796.416 439.575, 795.091 440.099 M 831.555 444.250 C 830.148 445.488, 828.721 447.944, 828.382 449.710 C 827.864 452.412, 828.266 453.420, 830.923 456.077 C 833.594 458.748, 834.574 459.135, 837.287 458.593 C 839.050 458.240, 841.271 457.173, 842.222 456.222 C 843.173 455.271, 844.240 453.050, 844.593 451.287 C 845.132 448.591, 844.749 447.596, 842.194 445.040 C 840.415 443.261, 838.108 442, 836.633 442 C 835.246 442, 832.961 443.012, 831.555 444.250 M 869.496 445.250 C 866.078 448.190, 865.833 453.129, 868.942 456.438 C 870.178 457.754, 872.276 459.103, 873.603 459.437 C 876.395 460.137, 881.465 457.837, 882.379 455.455 C 883.714 451.976, 882.961 447.870, 880.545 445.455 C 877.435 442.344, 872.971 442.261, 869.496 445.250 M 730.536 454.960 C 728.332 457.395, 729.136 461.467, 732.138 463.074 C 737.060 465.708, 742.211 459.101, 738.464 454.960 C 737.488 453.882, 735.705 453, 734.500 453 C 733.295 453, 731.512 453.882, 730.536 454.960 M 772.913 456.282 C 770.931 457.804, 769 461.355, 769 463.480 C 769 465.982, 773.622 470, 776.500 470 C 779.834 470, 784 465.834, 784 462.500 C 784 461.075, 782.895 458.805, 781.545 457.455 C 778.896 454.805, 775.447 454.336, 772.913 456.282 M 813.249 459.032 C 812.011 459.529, 810.269 461.464, 809.379 463.332 C 807.973 466.280, 807.941 467.105, 809.139 469.604 C 809.898 471.187, 811.694 473.045, 813.130 473.734 C 815.101 474.678, 816.516 474.716, 818.892 473.888 C 820.625 473.284, 822.483 471.967, 823.021 470.961 C 823.559 469.955, 824 467.560, 824 465.638 C 824 463.056, 823.313 461.605, 821.365 460.073 C 818.526 457.840, 816.774 457.615, 813.249 459.032 M 851.888 461.500 C 848.790 463.183, 846.549 468.002, 847.487 470.960 C 848.637 474.582, 852.091 477, 856.116 477 C 858.964 477, 860.349 476.372, 861.927 474.365 C 863.978 471.758, 864.581 467.678, 863.379 464.545 C 862.713 462.810, 857.942 459.974, 855.800 460.040 C 855.085 460.062, 853.325 460.719, 851.888 461.500 M 750.655 472.829 C 748.565 475.139, 748.523 479.380, 750.571 481.429 C 752.693 483.550, 757.315 483.415, 759.345 481.171 C 761.435 478.861, 761.477 474.620, 759.429 472.571 C 757.307 470.450, 752.685 470.585, 750.655 472.829 M 792.500 475.208 C 789.489 476.935, 788.067 479.190, 788.032 482.295 C 787.992 485.756, 792.007 490, 795.320 490 C 796.646 490, 798.916 489.067, 800.365 487.927 C 802.398 486.329, 803 484.973, 803 482 C 803 479.027, 802.398 477.671, 800.365 476.073 C 797.407 473.745, 795.429 473.528, 792.500 475.208 M 830.555 479.250 C 829.148 480.488, 827.721 482.944, 827.382 484.710 C 826.867 487.394, 827.264 488.418, 829.806 490.960 C 833.036 494.190, 835.764 494.728, 839.316 492.837 C 842.577 491.100, 843.933 488.875, 843.968 485.205 C 844.009 480.939, 840.232 477, 836.101 477 C 834.425 477, 831.988 477.989, 830.555 479.250 M 769.455 491.455 C 766.305 494.604, 766.246 498.943, 769.314 501.826 C 773.135 505.414, 778.136 504.572, 780.534 499.935 C 781.572 497.928, 781.724 496.403, 781.060 494.657 C 779.973 491.798, 776.348 489, 773.732 489 C 772.729 489, 770.805 490.105, 769.455 491.455 M 809.455 496.455 C 806.207 499.702, 806.143 504.847, 809.314 507.826 C 812.458 510.779, 817.972 510.742, 820.711 507.750 C 821.843 506.512, 823.070 504.510, 823.437 503.300 C 824.216 500.727, 821.834 495.534, 819.455 494.621 C 815.976 493.286, 811.870 494.039, 809.455 496.455 M 788.736 510.250 C 787.831 510.938, 786.610 512.792, 786.024 514.371 C 785.166 516.681, 785.305 517.838, 786.738 520.291 C 789.022 524.202, 792.977 525.599, 796.705 523.812 C 798.232 523.081, 800.045 521.306, 800.734 519.870 C 801.678 517.899, 801.716 516.484, 800.888 514.108 C 800.284 512.375, 798.967 510.517, 797.961 509.979 C 795.417 508.618, 790.703 508.756, 788.736 510.250 M 918.667 748.065 C 916.902 750.584, 917.578 753.704, 920.192 755.103 C 921.647 755.881, 922.745 755.742, 924.567 754.548 C 927.181 752.835, 927.793 749.193, 925.800 747.200 C 923.938 745.338, 920.266 745.783, 918.667 748.065 M 899.333 763.615 C 897.795 765.961, 897.771 766.502, 899.098 768.865 C 900.246 770.910, 901.343 771.500, 904 771.500 C 906.657 771.500, 907.754 770.910, 908.902 768.865 C 910.229 766.502, 910.205 765.961, 908.667 763.615 C 907.460 761.772, 906.082 761, 904 761 C 901.918 761, 900.540 761.772, 899.333 763.615 M 936.223 763.557 C 934.670 764.644, 934 766.134, 934 768.500 C 934 770.866, 934.670 772.356, 936.223 773.443 C 937.445 774.299, 939.391 775, 940.548 775 C 943.236 775, 947 771.025, 947 768.186 C 947 765.337, 943.613 762, 940.723 762 C 939.470 762, 937.445 762.701, 936.223 763.557 M 868.338 765.030 C 865.284 766.217, 864.409 769.690, 866.565 772.072 C 867.525 773.132, 869.070 774, 870 774 C 872.267 774, 875.258 770.565, 874.838 768.444 C 874.326 765.858, 870.873 764.045, 868.338 765.030 M 917.488 778.013 C 914.908 780.864, 915.133 785.880, 917.944 788.156 C 919.197 789.170, 921.257 790, 922.522 790 C 923.869 790, 925.908 788.709, 927.442 786.886 C 930.224 783.580, 930.166 781.097, 927.227 777.750 C 925.121 775.352, 919.766 775.496, 917.488 778.013 M 954.455 779.455 C 952.907 781.002, 952 783.052, 952 785 C 952 786.948, 952.907 788.998, 954.455 790.545 C 958.465 794.556, 963.685 793.444, 966.511 787.979 C 968.356 784.411, 967.602 780.535, 964.663 778.477 C 961.487 776.252, 957.251 776.658, 954.455 779.455 M 885.413 781.493 C 883.294 784.726, 884.274 788.712, 887.556 790.208 C 889.644 791.159, 890.508 791.013, 892.779 789.323 C 894.276 788.210, 895.649 786.295, 895.830 785.067 C 896.280 782.032, 893.300 779, 889.868 779 C 887.964 779, 886.515 779.810, 885.413 781.493 M 934.974 791.527 C 930.006 796.815, 933.169 805.333, 940.101 805.333 C 942.448 805.333, 944.078 804.477, 946.156 802.151 C 947.720 800.401, 949 798.271, 949 797.418 C 949 795.348, 947.047 791.787, 945.087 790.282 C 944.214 789.612, 942.116 789.049, 940.424 789.032 C 938.399 789.011, 936.538 789.863, 934.974 791.527 M 905.049 794.448 C 903.785 795.794, 902.750 798.059, 902.750 799.481 C 902.750 800.903, 903.551 802.951, 904.530 804.033 C 906.889 806.640, 912.133 806.616, 914.512 803.987 C 917.092 801.136, 916.867 796.120, 914.056 793.844 C 912.803 792.830, 910.782 792, 909.564 792 C 908.345 792, 906.314 793.101, 905.049 794.448 M 872.625 798.518 C 870.713 800.430, 870.499 804.099, 872.200 805.800 C 874.037 807.637, 877.481 807.231, 879.562 804.932 C 881.271 803.043, 881.303 802.630, 879.933 800.182 C 879.108 798.707, 877.492 797.364, 876.341 797.197 C 875.191 797.030, 873.518 797.625, 872.625 798.518 M 955.656 802.133 C 953.279 803.514, 950.834 809.363, 951.659 811.694 C 952.010 812.687, 953.209 814.513, 954.323 815.750 C 957.049 818.778, 962.046 818.725, 965.644 815.630 C 967.743 813.824, 968.400 812.363, 968.400 809.500 C 968.400 806.637, 967.743 805.176, 965.644 803.370 C 962.724 800.858, 958.705 800.360, 955.656 802.133 M 923.008 808.492 C 918.257 813.549, 921.345 821.333, 928.103 821.333 C 930.361 821.333, 932.013 820.524, 933.658 818.611 C 934.946 817.114, 936 814.768, 936 813.399 C 936 810.001, 931.793 806, 928.220 806 C 926.453 806, 924.448 806.958, 923.008 808.492 M 893.657 811.055 C 892.196 812.205, 891 814.137, 891 815.350 C 891 816.563, 891.701 818.555, 892.557 819.777 C 894.405 822.417, 899.096 822.761, 901.429 820.429 C 903.305 818.552, 903.512 812.654, 901.750 811.245 C 898.987 809.034, 896.306 808.971, 893.657 811.055 M 943.304 821.930 C 937.587 825.462, 937.793 834.218, 943.657 836.890 C 944.997 837.500, 946.938 838, 947.970 838 C 949.002 838, 951.231 836.835, 952.923 835.411 C 955.348 833.371, 956 832.030, 956 829.085 C 956 826.499, 955.307 824.702, 953.750 823.248 C 950.351 820.075, 946.993 819.652, 943.304 821.930 M 915.315 826.007 C 910.578 827.916, 909.576 834.667, 913.455 838.545 C 915.002 840.093, 917.052 841, 919 841 C 920.948 841, 922.998 840.093, 924.545 838.545 C 926.093 836.998, 927 834.948, 927 833 C 927 831.052, 926.093 829.002, 924.545 827.455 C 922.017 824.926, 919.125 824.472, 915.315 826.007 M 886.280 829.087 C 883.725 830.038, 882.236 834.559, 883.704 836.905 C 884.253 837.782, 886.029 838.634, 887.652 838.799 C 889.643 839, 891.214 838.421, 892.483 837.018 C 893.959 835.387, 894.164 834.377, 893.432 832.329 C 892.336 829.260, 889.395 827.927, 886.280 829.087" fill="#D7F651" fill-rule="evenodd"/>
</svg>
