<svg xmlns="http://www.w3.org/2000/svg" viewBox="0 0 24 24" width="96" height="96" shape-rendering="crispEdges">
  <defs>
    <clipPath id="c"><circle cx="12" cy="12" r="12"/></clipPath>
  </defs>
  <circle cx="12" cy="12" r="12" fill="#14141a"/>
  <g clip-path="url(#c)">
    <rect x="4" y="4" width="3" height="1" fill="#d7f651"/>
    <rect x="17" y="4" width="3" height="1" fill="#d7f651"/>
    <rect x="4" y="5" width="3" height="1" fill="#d7f651"/>
    <rect x="17" y="5" width="3" height="1" fill="#d7f651"/>
    <rect x="4" y="6" width="3" height="1" fill="#d7f651"/>
    <rect x="17" y="6" width="3" height="1" fill="#d7f651"/>
    <rect x="1" y="7" width="2" height="1" fill="#d7f651"/>
    <rect x="4" y="7" width="3" height="1" fill="#d7f651"/>
    <rect x="17" y="7" width="3" height="1" fill="#d7f651"/>
    <rect x="21" y="7" width="2" height="1" fill="#d7f651"/>
    <rect x="1" y="8" width="2" height="1" fill="#d7f651"/>
    <rect x="4" y="8" width="3" height="1" fill="#d7f651"/>
    <rect x="17" y="8" width="3" height="1" fill="#d7f651"/>
    <rect x="21" y="8" width="2" height="1" fill="#d7f651"/>
    <rect x="1" y="9" width="2" height="1" fill="#d7f651"/>
    <rect x="4" y="9" width="3" height="1" fill="#d7f651"/>
    <rect x="8" y="9" width="1" height="1" fill="#9d9da8"/>
    <rect x="15" y="9" width="1" height="1" fill="#9d9da8"/>
    <rect x="17" y="9" width="3" height="1" fill="#d7f651"/>
    <rect x="21" y="9" width="2" height="1" fill="#d7f651"/>
    <rect x="1" y="10" width="2" height="1" fill="#d7f651"/>
    <rect x="4" y="10" width="3" height="1" fill="#d7f651"/>
    <rect x="8" y="10" width="1" height="1" fill="#9d9da8"/>
    <rect x="15" y="10" width="1" height="1" fill="#9d9da8"/>
    <rect x="17" y="10" width="3" height="1" fill="#d7f651"/>
    <rect x="21" y="10" width="2" height="1" fill="#d7f651"/>
    <rect x="0" y="11" width="1" height="1" fill="#9d9da8"/>
    <rect x="1" y="11" width="2" height="1" fill="#d7f651"/>
    <rect x="3" y="11" width="1" height="1" fill="#9d9da8"/>
    <rect x="4" y="11" width="3" height="1" fill="#d7f651"/>
    <rect x="7" y="11" width="10" height="1" fill="#9d9da8"/>
    <rect x="17" y="11" width="3" height="1" fill="#d7f651"/>
    <rect x="20" y="11" width="1" height="1" fill="#9d9da8"/>
    <rect x="21" y="11" width="2" height="1" fill="#d7f651"/>
    <rect x="23" y="11" width="1" height="1" fill="#9d9da8"/>
    <rect x="0" y="12" width="1" height="1" fill="#9d9da8"/>
    <rect x="1" y="12" width="2" height="1" fill="#d7f651"/>
    <rect x="3" y="12" width="1" height="1" fill="#9d9da8"/>
    <rect x="4" y="12" width="3" height="1" fill="#d7f651"/>
    <rect x="7" y="12" width="10" height="1" fill="#9d9da8"/>
    <rect x="17" y="12" width="3" height="1" fill="#d7f651"/>
    <rect x="20" y="12" width="1" height="1" fill="#9d9da8"/>
    <rect x="21" y="12" width="2" height="1" fill="#d7f651"/>
    <rect x="23" y="12" width="1" height="1" fill="#9d9da8"/>
    <rect x="1" y="13" width="2" height="1" fill="#d7f651"/>
    <rect x="4" y="13" width="3" height="1" fill="#d7f651"/>
    <rect x="8" y="13" width="1" height="1" fill="#9d9da8"/>
    <rect x="15" y="13" width="1" height="1" fill="#9d9da8"/>
    <rect x="17" y="13" width="3" height="1" fill="#d7f651"/>
    <rect x="21" y="13" width="2" height="1" fill="#d7f651"/>
    <rect x="1" y="14" width="2" height="1" fill="#d7f651"/>
    <rect x="4" y="14" width="3" height="1" fill="#d7f651"/>
    <rect x="8" y="14" width="1" height="1" fill="#9d9da8"/>
    <rect x="15" y="14" width="1" height="1" fill="#9d9da8"/>
    <rect x="17" y="14" width="3" height="1" fill="#d7f651"/>
    <rect x="21" y="14" width="2" height="1" fill="#d7f651"/>
    <rect x="1" y="15" width="2" height="1" fill="#d7f651"/>
    <rect x="4" y="15" width="3" height="1" fill="#d7f651"/>
    <rect x="17" y="15" width="3" height="1" fill="#d7f651"/>
    <rect x="21" y="15" width="2" height="1" fill="#d7f651"/>
    <rect x="1" y="16" width="2" height="1" fill="#d7f651"/>
    <rect x="4" y="16" width="3" height="1" fill="#d7f651"/>
    <rect x="17" y="16" width="3" height="1" fill="#d7f651"/>
    <rect x="21" y="16" width="2" height="1" fill="#d7f651"/>
    <rect x="4" y="17" width="3" height="1" fill="#d7f651"/>
    <rect x="17" y="17" width="3" height="1" fill="#d7f651"/>
    <rect x="4" y="18" width="3" height="1" fill="#d7f651"/>
    <rect x="17" y="18" width="3" height="1" fill="#d7f651"/>
    <rect x="4" y="19" width="3" height="1" fill="#d7f651"/>
    <rect x="17" y="19" width="3" height="1" fill="#d7f651"/>
  </g>
</svg>
