<svg xmlns="http://www.w3.org/2000/svg" viewBox="0 0 24 24" width="96" height="96" shape-rendering="crispEdges">
  <defs>
    <clipPath id="c"><circle cx="12" cy="12" r="12"/></clipPath>
  </defs>
  <circle cx="12" cy="12" r="12" fill="#f0567c"/>
  <g clip-path="url(#c)">
    <rect x="15" y="3" width="5" height="1" fill="#14141a"/>
    <rect x="14" y="4" width="7" height="1" fill="#14141a"/>
    <rect x="14" y="5" width="7" height="1" fill="#14141a"/>
    <rect x="14" y="6" width="7" height="1" fill="#14141a"/>
    <rect x="15" y="7" width="5" height="1" fill="#14141a"/>
    <rect x="14" y="8" width="5" height="1" fill="#14141a"/>
    <rect x="13" y="9" width="5" height="1" fill="#14141a"/>
    <rect x="12" y="10" width="5" height="1" fill="#14141a"/>
    <rect x="11" y="11" width="5" height="1" fill="#14141a"/>
    <rect x="10" y="12" width="5" height="1" fill="#14141a"/>
    <rect x="5" y="13" width="10" height="1" fill="#14141a"/>
    <rect x="3" y="14" width="13" height="1" fill="#14141a"/>
    <rect x="2" y="15" width="15" height="1" fill="#14141a"/>
    <rect x="2" y="16" width="16" height="1" fill="#14141a"/>
    <rect x="2" y="17" width="16" height="1" fill="#14141a"/>
    <rect x="2" y="18" width="17" height="1" fill="#14141a"/>
    <rect x="3" y="19" width="16" height="1" fill="#14141a"/>
    <rect x="4" y="20" width="14" height="1" fill="#14141a"/>
    <rect x="6" y="21" width="11" height="1" fill="#14141a"/>
  </g>
</svg>
