<svg xmlns="http://www.w3.org/2000/svg" viewBox="0 0 24 24" width="96" height="96" shape-rendering="crispEdges">
  <defs>
    <clipPath id="c"><circle cx="12" cy="12" r="12"/></clipPath>
  </defs>
  <circle cx="12" cy="12" r="12" fill="#d0342c"/>
  <g clip-path="url(#c)">
    <rect x="3" y="3" width="2" height="1" fill="#f5e9c8"/>
    <rect x="19" y="3" width="2" height="1" fill="#f5e9c8"/>
    <rect x="2" y="4" width="3" height="1" fill="#f5e9c8"/>
    <rect x="19" y="4" width="3" height="1" fill="#f5e9c8"/>
    <rect x="3" y="5" width="3" height="1" fill="#f5e9c8"/>
    <rect x="18" y="5" width="3" height="1" fill="#f5e9c8"/>
    <rect x="4" y="6" width="3" height="1" fill="#f5e9c8"/>
    <rect x="17" y="6" width="3" height="1" fill="#f5e9c8"/>
    <rect x="5" y="7" width="2" height="1" fill="#f5e9c8"/>
    <rect x="7" y="7" width="10" height="1" fill="#14141a"/>
    <rect x="17" y="7" width="2" height="1" fill="#f5e9c8"/>
    <rect x="5" y="8" width="14" height="1" fill="#14141a"/>
    <rect x="5" y="9" width="14" height="1" fill="#14141a"/>
    <rect x="5" y="10" width="2" height="1" fill="#14141a"/>
    <rect x="7" y="10" width="2" height="1" fill="#f5e9c8"/>
    <rect x="9" y="10" width="6" height="1" fill="#14141a"/>
    <rect x="15" y="10" width="2" height="1" fill="#f5e9c8"/>
    <rect x="17" y="10" width="2" height="1" fill="#14141a"/>
    <rect x="5" y="11" width="14" height="1" fill="#14141a"/>
    <rect x="5" y="12" width="14" height="1" fill="#14141a"/>
    <rect x="6" y="13" width="12" height="1" fill="#14141a"/>
    <rect x="7" y="14" width="10" height="1" fill="#14141a"/>
    <rect x="7" y="15" width="10" height="1" fill="#14141a"/>
    <rect x="7" y="16" width="10" height="1" fill="#f5e9c8"/>
    <rect x="7" y="17" width="1" height="1" fill="#f5e9c8"/>
    <rect x="8" y="17" width="1" height="1" fill="#14141a"/>
    <rect x="9" y="17" width="6" height="1" fill="#f5e9c8"/>
    <rect x="15" y="17" width="1" height="1" fill="#14141a"/>
    <rect x="16" y="17" width="1" height="1" fill="#f5e9c8"/>
    <rect x="7" y="18" width="10" height="1" fill="#f5e9c8"/>
    <rect x="8" y="19" width="8" height="1" fill="#14141a"/>
  </g>
</svg>
