<svg xmlns="http://www.w3.org/2000/svg" viewBox="0 0 24 24" width="96" height="96" shape-rendering="crispEdges">
  <defs>
    <clipPath id="c"><circle cx="12" cy="12" r="12"/></clipPath>
  </defs>
  <circle cx="12" cy="12" r="12" fill="#1e1b4b"/>
  <g clip-path="url(#c)">
    <rect x="12" y="2" width="1" height="1" fill="#ff7a3c"/>
    <rect x="11" y="3" width="2" height="1" fill="#ff7a3c"/>
    <rect x="11" y="4" width="3" height="1" fill="#ff7a3c"/>
    <rect x="10" y="5" width="4" height="1" fill="#ff7a3c"/>
    <rect x="10" y="6" width="5" height="1" fill="#ff7a3c"/>
    <rect x="9" y="7" width="6" height="1" fill="#ff7a3c"/>
    <rect x="9" y="8" width="7" height="1" fill="#ff7a3c"/>
    <rect x="8" y="9" width="8" height="1" fill="#ff7a3c"/>
    <rect x="7" y="10" width="10" height="1" fill="#ff7a3c"/>
    <rect x="6" y="11" width="12" height="1" fill="#ff7a3c"/>
    <rect x="6" y="12" width="12" height="1" fill="#ff7a3c"/>
    <rect x="5" y="13" width="5" height="1" fill="#ff7a3c"/>
    <rect x="10" y="13" width="3" height="1" fill="#ffd23c"/>
    <rect x="13" y="13" width="6" height="1" fill="#ff7a3c"/>
    <rect x="5" y="14" width="4" height="1" fill="#ff7a3c"/>
    <rect x="9" y="14" width="5" height="1" fill="#ffd23c"/>
    <rect x="14" y="14" width="5" height="1" fill="#ff7a3c"/>
    <rect x="4" y="15" width="5" height="1" fill="#ff7a3c"/>
    <rect x="9" y="15" width="6" height="1" fill="#ffd23c"/>
    <rect x="15" y="15" width="5" height="1" fill="#ff7a3c"/>
    <rect x="4" y="16" width="5" height="1" fill="#ff7a3c"/>
    <rect x="9" y="16" width="6" height="1" fill="#ffd23c"/>
    <rect x="15" y="16" width="5" height="1" fill="#ff7a3c"/>
    <rect x="4" y="17" width="5" height="1" fill="#ff7a3c"/>
    <rect x="9" y="17" width="6" height="1" fill="#ffd23c"/>
    <rect x="15" y="17" width="5" height="1" fill="#ff7a3c"/>
    <rect x="5" y="18" width="4" height="1" fill="#ff7a3c"/>
    <rect x="9" y="18" width="6" height="1" fill="#ffd23c"/>
    <rect x="15" y="18" width="4" height="1" fill="#ff7a3c"/>
    <rect x="6" y="19" width="4" height="1" fill="#ff7a3c"/>
    <rect x="10" y="19" width="4" height="1" fill="#ffd23c"/>
    <rect x="14" y="19" width="4" height="1" fill="#ff7a3c"/>
    <rect x="7" y="20" width="3" height="1" fill="#ff7a3c"/>
    <rect x="10" y="20" width="4" height="1" fill="#ffd23c"/>
    <rect x="14" y="20" width="3" height="1" fill="#ff7a3c"/>
    <rect x="8" y="21" width="3" height="1" fill="#ff7a3c"/>
    <rect x="11" y="21" width="2" height="1" fill="#ffd23c"/>
    <rect x="13" y="21" width="3" height="1" fill="#ff7a3c"/>
  </g>
</svg>
