<svg xmlns="http://www.w3.org/2000/svg" viewBox="0 0 24 24" width="96" height="96" shape-rendering="crispEdges">
  <defs>
    <clipPath id="c"><circle cx="12" cy="12" r="12"/></clipPath>
  </defs>
  <circle cx="12" cy="12" r="12" fill="#c9ccd6"/>
  <g clip-path="url(#c)">
    <rect x="7" y="3" width="10" height="1" fill="#14141a"/>
    <rect x="5" y="4" width="14" height="1" fill="#14141a"/>
    <rect x="4" y="5" width="16" height="1" fill="#14141a"/>
    <rect x="3" y="6" width="18" height="1" fill="#14141a"/>
    <rect x="3" y="7" width="18" height="1" fill="#14141a"/>
    <rect x="2" y="8" width="20" height="1" fill="#14141a"/>
    <rect x="2" y="9" width="20" height="1" fill="#14141a"/>
    <rect x="2" y="10" width="20" height="1" fill="#14141a"/>
    <rect x="2" y="11" width="5" height="1" fill="#14141a"/>
    <rect x="7" y="11" width="2" height="1" fill="#8d93a1"/>
    <rect x="9" y="11" width="6" height="1" fill="#14141a"/>
    <rect x="15" y="11" width="2" height="1" fill="#8d93a1"/>
    <rect x="17" y="11" width="5" height="1" fill="#14141a"/>
    <rect x="2" y="12" width="5" height="1" fill="#14141a"/>
    <rect x="7" y="12" width="2" height="1" fill="#8d93a1"/>
    <rect x="9" y="12" width="6" height="1" fill="#14141a"/>
    <rect x="15" y="12" width="2" height="1" fill="#8d93a1"/>
    <rect x="17" y="12" width="5" height="1" fill="#14141a"/>
    <rect x="2" y="13" width="20" height="1" fill="#14141a"/>
    <rect x="2" y="14" width="6" height="1" fill="#14141a"/>
    <rect x="8" y="14" width="8" height="1" fill="#8d93a1"/>
    <rect x="16" y="14" width="6" height="1" fill="#14141a"/>
    <rect x="2" y="15" width="5" height="1" fill="#14141a"/>
    <rect x="7" y="15" width="10" height="1" fill="#8d93a1"/>
    <rect x="17" y="15" width="5" height="1" fill="#14141a"/>
    <rect x="2" y="16" width="5" height="1" fill="#14141a"/>
    <rect x="7" y="16" width="2" height="1" fill="#8d93a1"/>
    <rect x="9" y="16" width="1" height="1" fill="#14141a"/>
    <rect x="10" y="16" width="4" height="1" fill="#8d93a1"/>
    <rect x="14" y="16" width="1" height="1" fill="#14141a"/>
    <rect x="15" y="16" width="2" height="1" fill="#8d93a1"/>
    <rect x="17" y="16" width="5" height="1" fill="#14141a"/>
    <rect x="2" y="17" width="5" height="1" fill="#14141a"/>
    <rect x="7" y="17" width="10" height="1" fill="#8d93a1"/>
    <rect x="17" y="17" width="5" height="1" fill="#14141a"/>
    <rect x="3" y="18" width="5" height="1" fill="#14141a"/>
    <rect x="8" y="18" width="8" height="1" fill="#8d93a1"/>
    <rect x="16" y="18" width="5" height="1" fill="#14141a"/>
    <rect x="3" y="19" width="18" height="1" fill="#14141a"/>
    <rect x="4" y="20" width="16" height="1" fill="#14141a"/>
    <rect x="6" y="21" width="12" height="1" fill="#14141a"/>
  </g>
</svg>
