<svg xmlns="http://www.w3.org/2000/svg" viewBox="0 0 24 24" width="96" height="96" shape-rendering="crispEdges">
  <defs>
    <clipPath id="c"><circle cx="12" cy="12" r="12"/></clipPath>
  </defs>
  <circle cx="12" cy="12" r="12" fill="#5b5bf0"/>
  <g clip-path="url(#c)">
    <rect x="8" y="2" width="8" height="1" fill="#14141a"/>
    <rect x="7" y="3" width="10" height="1" fill="#14141a"/>
    <rect x="7" y="4" width="3" height="1" fill="#14141a"/>
    <rect x="14" y="4" width="3" height="1" fill="#14141a"/>
    <rect x="6" y="5" width="3" height="1" fill="#14141a"/>
    <rect x="15" y="5" width="3" height="1" fill="#14141a"/>
    <rect x="6" y="6" width="2" height="1" fill="#14141a"/>
    <rect x="16" y="6" width="2" height="1" fill="#14141a"/>
    <rect x="6" y="7" width="2" height="1" fill="#14141a"/>
    <rect x="16" y="7" width="2" height="1" fill="#14141a"/>
    <rect x="5" y="8" width="4" height="1" fill="#14141a"/>
    <rect x="15" y="8" width="4" height="1" fill="#14141a"/>
    <rect x="4" y="9" width="6" height="1" fill="#14141a"/>
    <rect x="14" y="9" width="6" height="1" fill="#14141a"/>
    <rect x="3" y="10" width="18" height="1" fill="#14141a"/>
    <rect x="2" y="11" width="20" height="1" fill="#14141a"/>
    <rect x="2" y="12" width="20" height="1" fill="#14141a"/>
    <rect x="2" y="13" width="20" height="1" fill="#14141a"/>
    <rect x="2" y="14" width="20" height="1" fill="#14141a"/>
    <rect x="2" y="15" width="20" height="1" fill="#14141a"/>
    <rect x="2" y="16" width="12" height="1" fill="#14141a"/>
    <rect x="14" y="16" width="1" height="1" fill="#14141a"/>
    <rect x="16" y="16" width="1" height="1" fill="#14141a"/>
    <rect x="18" y="16" width="1" height="1" fill="#14141a"/>
    <rect x="20" y="16" width="1" height="1" fill="#14141a"/>
    <rect x="3" y="17" width="11" height="1" fill="#14141a"/>
    <rect x="15" y="17" width="1" height="1" fill="#14141a"/>
    <rect x="17" y="17" width="1" height="1" fill="#14141a"/>
    <rect x="19" y="17" width="1" height="1" fill="#14141a"/>
    <rect x="4" y="18" width="10" height="1" fill="#14141a"/>
    <rect x="14" y="18" width="1" height="1" fill="#14141a"/>
    <rect x="16" y="18" width="1" height="1" fill="#14141a"/>
    <rect x="18" y="18" width="1" height="1" fill="#14141a"/>
    <rect x="6" y="19" width="12" height="1" fill="#14141a"/>
    <rect x="9" y="20" width="6" height="1" fill="#14141a"/>
  </g>
</svg>
