<svg xmlns="http://www.w3.org/2000/svg" viewBox="0 0 24 24" width="96" height="96" shape-rendering="crispEdges">
  <defs>
    <clipPath id="c"><circle cx="12" cy="12" r="12"/></clipPath>
  </defs>
  <circle cx="12" cy="12" r="12" fill="#d7f651"/>
  <g clip-path="url(#c)">
    <rect x="14" y="2" width="2" height="1" fill="#14141a"/>
    <rect x="19" y="2" width="2" height="1" fill="#14141a"/>
    <rect x="14" y="3" width="7" height="1" fill="#14141a"/>
    <rect x="7" y="4" width="3" height="1" fill="#14141a"/>
    <rect x="14" y="4" width="7" height="1" fill="#14141a"/>
    <rect x="6" y="5" width="5" height="1" fill="#14141a"/>
    <rect x="14" y="5" width="4" height="1" fill="#14141a"/>
    <rect x="19" y="5" width="2" height="1" fill="#14141a"/>
    <rect x="6" y="6" width="5" height="1" fill="#14141a"/>
    <rect x="15" y="6" width="2" height="1" fill="#14141a"/>
    <rect x="6" y="7" width="5" height="1" fill="#14141a"/>
    <rect x="14" y="7" width="2" height="1" fill="#14141a"/>
    <rect x="7" y="8" width="3" height="1" fill="#14141a"/>
    <rect x="13" y="8" width="2" height="1" fill="#14141a"/>
    <rect x="13" y="9" width="2" height="1" fill="#14141a"/>
    <rect x="12" y="10" width="2" height="1" fill="#14141a"/>
    <rect x="5" y="11" width="8" height="1" fill="#14141a"/>
    <rect x="4" y="12" width="9" height="1" fill="#14141a"/>
    <rect x="4" y="13" width="9" height="1" fill="#14141a"/>
    <rect x="4" y="14" width="9" height="1" fill="#14141a"/>
    <rect x="4" y="15" width="9" height="1" fill="#14141a"/>
    <rect x="4" y="16" width="2" height="1" fill="#14141a"/>
    <rect x="7" y="16" width="6" height="1" fill="#14141a"/>
    <rect x="4" y="17" width="2" height="1" fill="#14141a"/>
    <rect x="7" y="17" width="6" height="1" fill="#14141a"/>
    <rect x="4" y="18" width="2" height="1" fill="#14141a"/>
    <rect x="7" y="18" width="6" height="1" fill="#14141a"/>
    <rect x="4" y="19" width="2" height="1" fill="#14141a"/>
    <rect x="7" y="19" width="6" height="1" fill="#14141a"/>
    <rect x="4" y="20" width="2" height="1" fill="#14141a"/>
    <rect x="7" y="20" width="6" height="1" fill="#14141a"/>
    <rect x="4" y="21" width="2" height="1" fill="#14141a"/>
    <rect x="7" y="21" width="6" height="1" fill="#14141a"/>
  </g>
</svg>
