<svg xmlns="http://www.w3.org/2000/svg" viewBox="0 0 24 24" width="96" height="96" shape-rendering="crispEdges">
  <defs>
    <clipPath id="c"><circle cx="12" cy="12" r="12"/></clipPath>
  </defs>
  <circle cx="12" cy="12" r="12" fill="#ff7a3c"/>
  <g clip-path="url(#c)">
    <rect x="8" y="2" width="1" height="1" fill="#14141a"/>
    <rect x="10" y="2" width="1" height="1" fill="#14141a"/>
    <rect x="12" y="2" width="1" height="1" fill="#14141a"/>
    <rect x="14" y="2" width="1" height="1" fill="#14141a"/>
    <rect x="7" y="3" width="1" height="1" fill="#14141a"/>
    <rect x="9" y="3" width="1" height="1" fill="#14141a"/>
    <rect x="11" y="3" width="1" height="1" fill="#14141a"/>
    <rect x="13" y="3" width="1" height="1" fill="#14141a"/>
    <rect x="15" y="3" width="1" height="1" fill="#14141a"/>
    <rect x="17" y="3" width="1" height="1" fill="#14141a"/>
    <rect x="6" y="4" width="1" height="1" fill="#14141a"/>
    <rect x="8" y="4" width="8" height="1" fill="#14141a"/>
    <rect x="16" y="4" width="1" height="1" fill="#14141a"/>
    <rect x="18" y="4" width="1" height="1" fill="#14141a"/>
    <rect x="5" y="5" width="1" height="1" fill="#14141a"/>
    <rect x="7" y="5" width="10" height="1" fill="#14141a"/>
    <rect x="17" y="5" width="1" height="1" fill="#14141a"/>
    <rect x="19" y="5" width="1" height="1" fill="#14141a"/>
    <rect x="4" y="6" width="1" height="1" fill="#14141a"/>
    <rect x="6" y="6" width="5" height="1" fill="#14141a"/>
    <rect x="11" y="6" width="2" height="1" fill="#ffd23c"/>
    <rect x="13" y="6" width="5" height="1" fill="#14141a"/>
    <rect x="18" y="6" width="1" height="1" fill="#14141a"/>
    <rect x="20" y="6" width="1" height="1" fill="#14141a"/>
    <rect x="3" y="7" width="1" height="1" fill="#14141a"/>
    <rect x="5" y="7" width="14" height="1" fill="#14141a"/>
    <rect x="19" y="7" width="1" height="1" fill="#14141a"/>
    <rect x="2" y="8" width="1" height="1" fill="#14141a"/>
    <rect x="4" y="8" width="16" height="1" fill="#14141a"/>
    <rect x="20" y="8" width="1" height="1" fill="#14141a"/>
    <rect x="3" y="9" width="1" height="1" fill="#14141a"/>
    <rect x="4" y="9" width="6" height="1" fill="#14141a"/>
    <rect x="14" y="9" width="6" height="1" fill="#14141a"/>
    <rect x="21" y="9" width="1" height="1" fill="#14141a"/>
    <rect x="2" y="10" width="1" height="1" fill="#14141a"/>
    <rect x="4" y="10" width="5" height="1" fill="#14141a"/>
    <rect x="15" y="10" width="5" height="1" fill="#14141a"/>
    <rect x="20" y="10" width="1" height="1" fill="#14141a"/>
    <rect x="3" y="11" width="1" height="1" fill="#14141a"/>
    <rect x="4" y="11" width="2" height="1" fill="#14141a"/>
    <rect x="6" y="11" width="1" height="1" fill="#ffd23c"/>
    <rect x="7" y="11" width="2" height="1" fill="#14141a"/>
    <rect x="15" y="11" width="2" height="1" fill="#14141a"/>
    <rect x="17" y="11" width="1" height="1" fill="#ffd23c"/>
    <rect x="18" y="11" width="2" height="1" fill="#14141a"/>
    <rect x="21" y="11" width="1" height="1" fill="#14141a"/>
    <rect x="2" y="12" width="1" height="1" fill="#14141a"/>
    <rect x="4" y="12" width="2" height="1" fill="#14141a"/>
    <rect x="6" y="12" width="1" height="1" fill="#ffd23c"/>
    <rect x="7" y="12" width="2" height="1" fill="#14141a"/>
    <rect x="15" y="12" width="2" height="1" fill="#14141a"/>
    <rect x="17" y="12" width="1" height="1" fill="#ffd23c"/>
    <rect x="18" y="12" width="2" height="1" fill="#14141a"/>
    <rect x="20" y="12" width="1" height="1" fill="#14141a"/>
    <rect x="3" y="13" width="1" height="1" fill="#14141a"/>
    <rect x="4" y="13" width="5" height="1" fill="#14141a"/>
    <rect x="15" y="13" width="5" height="1" fill="#14141a"/>
    <rect x="21" y="13" width="1" height="1" fill="#14141a"/>
    <rect x="2" y="14" width="1" height="1" fill="#14141a"/>
    <rect x="4" y="14" width="6" height="1" fill="#14141a"/>
    <rect x="14" y="14" width="6" height="1" fill="#14141a"/>
    <rect x="20" y="14" width="1" height="1" fill="#14141a"/>
    <rect x="3" y="15" width="1" height="1" fill="#14141a"/>
    <rect x="4" y="15" width="16" height="1" fill="#14141a"/>
    <rect x="21" y="15" width="1" height="1" fill="#14141a"/>
    <rect x="4" y="16" width="1" height="1" fill="#14141a"/>
    <rect x="5" y="16" width="14" height="1" fill="#14141a"/>
    <rect x="20" y="16" width="1" height="1" fill="#14141a"/>
    <rect x="3" y="17" width="1" height="1" fill="#14141a"/>
    <rect x="5" y="17" width="1" height="1" fill="#14141a"/>
    <rect x="6" y="17" width="5" height="1" fill="#14141a"/>
    <rect x="11" y="17" width="2" height="1" fill="#ffd23c"/>
    <rect x="13" y="17" width="5" height="1" fill="#14141a"/>
    <rect x="19" y="17" width="1" height="1" fill="#14141a"/>
    <rect x="4" y="18" width="1" height="1" fill="#14141a"/>
    <rect x="6" y="18" width="1" height="1" fill="#14141a"/>
    <rect x="7" y="18" width="10" height="1" fill="#14141a"/>
    <rect x="18" y="18" width="1" height="1" fill="#14141a"/>
    <rect x="5" y="19" width="1" height="1" fill="#14141a"/>
    <rect x="7" y="19" width="1" height="1" fill="#14141a"/>
    <rect x="8" y="19" width="8" height="1" fill="#14141a"/>
    <rect x="17" y="19" width="1" height="1" fill="#14141a"/>
    <rect x="6" y="20" width="1" height="1" fill="#14141a"/>
    <rect x="8" y="20" width="1" height="1" fill="#14141a"/>
    <rect x="10" y="20" width="1" height="1" fill="#14141a"/>
    <rect x="12" y="20" width="1" height="1" fill="#14141a"/>
    <rect x="14" y="20" width="1" height="1" fill="#14141a"/>
    <rect x="16" y="20" width="1" height="1" fill="#14141a"/>
    <rect x="9" y="21" width="1" height="1" fill="#14141a"/>
    <rect x="11" y="21" width="1" height="1" fill="#14141a"/>
    <rect x="13" y="21" width="1" height="1" fill="#14141a"/>
    <rect x="15" y="21" width="1" height="1" fill="#14141a"/>
  </g>
</svg>
