<svg xmlns="http://www.w3.org/2000/svg" viewBox="0 0 24 24" width="96" height="96" shape-rendering="crispEdges">
  <defs>
    <clipPath id="c"><circle cx="12" cy="12" r="12"/></clipPath>
  </defs>
  <circle cx="12" cy="12" r="12" fill="#14141a"/>
  <g clip-path="url(#c)">
    <rect x="10" y="4" width="1" height="1" fill="#d7f651"/>
    <rect x="17" y="4" width="2" height="1" fill="#f0567c"/>
    <rect x="20" y="4" width="2" height="1" fill="#f0567c"/>
    <rect x="10" y="5" width="1" height="1" fill="#d7f651"/>
    <rect x="16" y="5" width="7" height="1" fill="#f0567c"/>
    <rect x="16" y="6" width="7" height="1" fill="#f0567c"/>
    <rect x="9" y="7" width="1" height="1" fill="#d7f651"/>
    <rect x="11" y="7" width="1" height="1" fill="#d7f651"/>
    <rect x="17" y="7" width="5" height="1" fill="#f0567c"/>
    <rect x="9" y="8" width="1" height="1" fill="#d7f651"/>
    <rect x="11" y="8" width="1" height="1" fill="#d7f651"/>
    <rect x="18" y="8" width="3" height="1" fill="#f0567c"/>
    <rect x="19" y="9" width="1" height="1" fill="#f0567c"/>
    <rect x="8" y="10" width="1" height="1" fill="#d7f651"/>
    <rect x="12" y="10" width="1" height="1" fill="#d7f651"/>
    <rect x="8" y="11" width="1" height="1" fill="#d7f651"/>
    <rect x="12" y="11" width="1" height="1" fill="#d7f651"/>
    <rect x="7" y="12" width="1" height="1" fill="#d7f651"/>
    <rect x="2" y="13" width="6" height="1" fill="#d7f651"/>
    <rect x="13" y="13" width="1" height="1" fill="#d7f651"/>
    <rect x="15" y="13" width="6" height="1" fill="#d7f651"/>
    <rect x="2" y="14" width="5" height="1" fill="#d7f651"/>
    <rect x="13" y="14" width="1" height="1" fill="#d7f651"/>
    <rect x="15" y="14" width="6" height="1" fill="#d7f651"/>
    <rect x="14" y="16" width="1" height="1" fill="#d7f651"/>
    <rect x="14" y="17" width="1" height="1" fill="#d7f651"/>
  </g>
</svg>
