<svg xmlns="http://www.w3.org/2000/svg" viewBox="0 0 24 24" width="96" height="96" shape-rendering="crispEdges">
  <defs>
    <clipPath id="c"><circle cx="12" cy="12" r="12"/></clipPath>
  </defs>
  <circle cx="12" cy="12" r="12" fill="#4cc9f0"/>
  <g clip-path="url(#c)">
    <rect x="10" y="2" width="4" height="1" fill="#14141a"/>
    <rect x="10" y="3" width="4" height="1" fill="#14141a"/>
    <rect x="9" y="4" width="6" height="1" fill="#14141a"/>
    <rect x="7" y="5" width="10" height="1" fill="#14141a"/>
    <rect x="7" y="6" width="10" height="1" fill="#14141a"/>
    <rect x="8" y="7" width="8" height="1" fill="#14141a"/>
    <rect x="8" y="8" width="8" height="1" fill="#14141a"/>
    <rect x="8" y="9" width="8" height="1" fill="#14141a"/>
    <rect x="8" y="10" width="1" height="1" fill="#14141a"/>
    <rect x="9" y="10" width="1" height="1" fill="#eef2f6"/>
    <rect x="10" y="10" width="6" height="1" fill="#14141a"/>
    <rect x="8" y="11" width="8" height="1" fill="#14141a"/>
    <rect x="8" y="12" width="8" height="1" fill="#14141a"/>
    <rect x="8" y="13" width="1" height="1" fill="#14141a"/>
    <rect x="9" y="13" width="1" height="1" fill="#eef2f6"/>
    <rect x="10" y="13" width="6" height="1" fill="#14141a"/>
    <rect x="8" y="14" width="8" height="1" fill="#14141a"/>
    <rect x="8" y="15" width="8" height="1" fill="#14141a"/>
    <rect x="8" y="16" width="1" height="1" fill="#14141a"/>
    <rect x="9" y="16" width="1" height="1" fill="#eef2f6"/>
    <rect x="10" y="16" width="6" height="1" fill="#14141a"/>
    <rect x="8" y="17" width="8" height="1" fill="#14141a"/>
    <rect x="8" y="18" width="8" height="1" fill="#14141a"/>
    <rect x="8" y="19" width="8" height="1" fill="#14141a"/>
    <rect x="8" y="20" width="8" height="1" fill="#14141a"/>
  </g>
</svg>
